<svg xmlns="http://www.w3.org/2000/svg" width="210" height="60" viewBox="0 0 506.336 144.607"><g transform="translate(-113 -157)"><g transform="translate(113 157)"><g transform="translate(0 0)"><path d="M 483.2822570800781 144.1074829101563 L 23.05337905883789 144.1074829101563 C 20.00844192504883 144.1074829101563 17.05487823486328 143.51123046875 14.27475357055664 142.3353576660156 C 11.5891284942627 141.1994171142578 9.177128791809082 139.5731658935547 7.105690956115723 137.5017242431641 C 5.034316062927246 135.4302825927734 3.408066272735596 133.0182952880859 2.272128582000732 130.3327331542969 C 1.096253633499146 127.5525360107422 0.5000036358833313 124.5989761352539 0.5000036358833313 121.5541000366211 L 0.5000036358833313 23.0533504486084 C 0.5000036358833313 20.00847625732422 1.096253633499146 17.0549144744873 2.272128582000732 14.27472591400146 C 3.408066272735596 11.5891637802124 5.034316062927246 9.177164077758789 7.105690956115723 7.10572624206543 C 9.177128791809082 5.034288883209229 11.5891284942627 3.40803861618042 14.27475357055664 2.272101163864136 C 17.05487823486328 1.096226215362549 20.00844192504883 0.4999761879444122 23.05337905883789 0.4999761879444122 L 483.2822570800781 0.4999761879444122 C 486.3271179199219 0.4999761879444122 489.2807006835938 1.096226215362549 492.0608825683594 2.272101163864136 C 494.7464294433594 3.40803861618042 497.158447265625 5.034288883209229 499.2298889160156 7.10572624206543 C 501.3013305664063 9.177164077758789 502.9275512695313 11.5891637802124 504.0635070800781 14.27472591400146 C 505.2393798828125 17.0549144744873 505.8356323242188 20.00847625732422 505.8356323242188 23.0533504486084 L 505.8356323242188 121.5541000366211 C 505.8356323242188 124.5989761352539 505.2393798828125 127.5525360107422 504.0635070800781 130.3327331542969 C 502.9275512695313 133.0182952880859 501.3013305664063 135.4302825927734 499.2298889160156 137.5017242431641 C 497.158447265625 139.5731658935547 494.7464294433594 141.1994171142578 492.0608825683594 142.3353576660156 C 489.2807006835938 143.51123046875 486.3271179199219 144.1074829101563 483.2822570800781 144.1074829101563 Z" stroke="none"/><path d="M 23.05331420898438 0.999969482421875 C 20.07568359375 0.999969482421875 17.18768310546875 1.582916259765625 14.46951293945313 2.73260498046875 C 11.843505859375 3.843353271484375 9.484954833984375 5.43359375 7.459259033203125 7.45928955078125 C 5.433624267578125 9.484909057617188 3.84332275390625 11.84353637695313 2.732635498046875 14.469482421875 C 1.58294677734375 17.18772888183594 1 20.07572937011719 1 23.05335235595703 L 1 121.5541000366211 C 1 124.5317230224609 1.58294677734375 127.4197235107422 2.732635498046875 130.1379699707031 C 3.84332275390625 132.763916015625 5.433624267578125 135.1225433349609 7.459259033203125 137.1481628417969 C 9.484954833984375 139.1738586425781 11.843505859375 140.7640991210938 14.46951293945313 141.8748474121094 C 17.18768310546875 143.0245361328125 20.07568359375 143.6074829101563 23.05331420898438 143.6074829101563 L 483.2822570800781 143.6074829101563 C 486.2598876953125 143.6074829101563 489.1478881835938 143.0245361328125 491.8661193847656 141.8747863769531 C 494.4920654296875 140.7640991210938 496.8506774902344 139.1738586425781 498.8763122558594 137.1481628417969 C 500.9020080566406 135.1225433349609 502.4922485351563 132.763916015625 503.6029357910156 130.1379699707031 C 504.752685546875 127.4197235107422 505.3356323242188 124.5317230224609 505.3356323242188 121.5541000366211 L 505.3356323242188 23.05335235595703 C 505.3356323242188 20.07572937011719 504.752685546875 17.18772888183594 503.6029357910156 14.469482421875 C 502.4922485351563 11.84353637695313 500.9020080566406 9.484909057617188 498.8763122558594 7.45928955078125 C 496.8506774902344 5.43359375 494.4920654296875 3.843353271484375 491.8661193847656 2.732666015625 C 489.1478881835938 1.582916259765625 486.2598876953125 0.999969482421875 483.2822570800781 0.999969482421875 L 23.05331420898438 0.999969482421875 M 23.05331420898438 -3.0517578125e-05 L 483.2822570800781 -3.0517578125e-05 C 496.0142517089844 -3.0517578125e-05 506.3356323242188 10.32135009765625 506.3356323242188 23.05335235595703 L 506.3356323242188 121.5541000366211 C 506.3356323242188 134.2861022949219 496.0142517089844 144.6074829101563 483.2822570800781 144.6074829101563 L 23.05331420898438 144.6074829101563 C 10.32131958007813 144.6074829101563 0 134.2861022949219 0 121.5541000366211 L 0 23.05335235595703 C 0 10.32135009765625 10.32131958007813 -3.0517578125e-05 23.05331420898438 -3.0517578125e-05 Z" stroke="none" fill="#707070"/></g><g transform="translate(19.978 15.728)"><g transform="translate(236.022 0.272)" fill="#ff34dd" stroke="#000" stroke-width="2"><rect width="21" height="21" stroke="none"/><rect x="1" y="1" width="19" height="19" fill="none"/></g><g transform="translate(258.022 0.272)" fill="#ff34dd" stroke="#000" stroke-width="2"><rect width="22" height="21" stroke="none"/><rect x="1" y="1" width="20" height="19" fill="none"/></g><g transform="translate(281.022 0.272)" fill="#ff34dd" stroke="#000" stroke-width="2"><rect width="21" height="21" stroke="none"/><rect x="1" y="1" width="19" height="19" fill="none"/></g><g transform="translate(281.022 20.272)" fill="#ff34dd" stroke="#000" stroke-width="2"><rect width="21" height="16" stroke="none"/><rect x="1" y="1" width="19" height="14" fill="none"/></g><g transform="translate(258.022 57.272)" fill="#ff34dd" stroke="#000" stroke-width="2"><rect width="22" height="17" stroke="none"/><rect x="1" y="1" width="20" height="15" fill="none"/></g><g transform="translate(269.022 75.272)" fill="#ff34dd" stroke="#000" stroke-width="2"><rect width="21" height="18" stroke="none"/><rect x="1" y="1" width="19" height="16" fill="none"/></g><g transform="translate(281.022 94.272)" fill="#ff34dd" stroke="#000" stroke-width="2"><rect width="21" height="15" stroke="none"/><rect x="1" y="1" width="19" height="13" fill="none"/></g><g transform="translate(258.022 35.272)" fill="#ff34dd" stroke="#000" stroke-width="2"><rect width="22" height="21" stroke="none"/><rect x="1" y="1" width="20" height="19" fill="none"/></g><g transform="translate(281.022 35.272)" fill="#ff34dd" stroke="#000" stroke-width="2"><rect width="21" height="21" stroke="none"/><rect x="1" y="1" width="19" height="19" fill="none"/></g><g transform="translate(236.022 22.272)" fill="#ff34dd" stroke="#000" stroke-width="2"><rect width="21" height="21" stroke="none"/><rect x="1" y="1" width="19" height="19" fill="none"/></g><g transform="translate(236.022 44.272)" fill="#ff34dd" stroke="#000" stroke-width="2"><rect width="21" height="21" stroke="none"/><rect x="1" y="1" width="19" height="19" fill="none"/></g><g transform="translate(236.022 66.272)" fill="#ff34dd" stroke="#000" stroke-width="2"><rect width="21" height="21" stroke="none"/><rect x="1" y="1" width="19" height="19" fill="none"/></g><g transform="translate(236.022 89.272)" fill="#ff34dd" stroke="#000" stroke-width="2"><rect width="21" height="20" stroke="none"/><rect x="1" y="1" width="19" height="18" fill="none"/></g><g transform="translate(78.638 0)"><g transform="translate(0.383 0.272)" fill="#5947d5" stroke="#000" stroke-width="2"><rect width="21" height="21" stroke="none"/><rect x="1" y="1" width="19" height="19" fill="none"/></g><g transform="translate(22.383 0.272)" fill="#5947d5" stroke="#000" stroke-width="2"><rect width="21" height="21" stroke="none"/><rect x="1" y="1" width="19" height="19" fill="none"/></g><g transform="translate(44.383 0.272)" fill="#5947d5" stroke="#000" stroke-width="2"><rect width="21" height="21" stroke="none"/><rect x="1" y="1" width="19" height="19" fill="none"/></g><g transform="translate(0.383 22.272)" fill="#5947d5" stroke="#000" stroke-width="2"><rect width="21" height="21" stroke="none"/><rect x="1" y="1" width="19" height="19" fill="none"/></g><g transform="translate(0.383 44.272)" fill="#5947d5" stroke="#000" stroke-width="2"><rect width="21" height="21" stroke="none"/><rect x="1" y="1" width="19" height="19" fill="none"/></g><g transform="translate(44.383 89.272)" fill="#5947d5" stroke="#000" stroke-width="2"><rect width="21" height="20" stroke="none"/><rect x="1" y="1" width="19" height="18" fill="none"/></g><g transform="translate(0.383 66.272)" fill="#5947d5" stroke="#000" stroke-width="2"><rect width="21" height="21" stroke="none"/><rect x="1" y="1" width="19" height="19" fill="none"/></g><g transform="translate(22.383 89.272)" fill="#5947d5" stroke="#000" stroke-width="2"><rect width="21" height="20" stroke="none"/><rect x="1" y="1" width="19" height="18" fill="none"/></g><g transform="translate(22.383 44.272)" fill="#5947d5" stroke="#000" stroke-width="2"><rect width="21" height="21" stroke="none"/><rect x="1" y="1" width="19" height="19" fill="none"/></g><g transform="translate(0.383 89.272)" fill="#5947d5" stroke="#000" stroke-width="2"><rect width="21" height="20" stroke="none"/><rect x="1" y="1" width="19" height="18" fill="none"/></g></g><g transform="translate(157.702 0)"><g transform="translate(0.32 0.272)" fill="#16ff3d" stroke="#000" stroke-width="2"><rect width="21" height="21" stroke="none"/><rect x="1" y="1" width="19" height="19" fill="none"/></g><g transform="translate(22.32 0.272)" fill="#16ff3d" stroke="#000" stroke-width="2"><rect width="21" height="21" stroke="none"/><rect x="1" y="1" width="19" height="19" fill="none"/></g><g transform="translate(22.32 22.272)" fill="#16ff3d" stroke="#000" stroke-width="2"><rect width="21" height="21" stroke="none"/><rect x="1" y="1" width="19" height="19" fill="none"/></g><g transform="translate(22.32 44.272)" fill="#16ff3d" stroke="#000" stroke-width="2"><rect width="21" height="21" stroke="none"/><rect x="1" y="1" width="19" height="19" fill="none"/></g><g transform="translate(22.32 66.272)" fill="#16ff3d" stroke="#000" stroke-width="2"><rect width="21" height="21" stroke="none"/><rect x="1" y="1" width="19" height="19" fill="none"/></g><g transform="translate(22.32 89.272)" fill="#16ff3d" stroke="#000" stroke-width="2"><rect width="21" height="20" stroke="none"/><rect x="1" y="1" width="19" height="18" fill="none"/></g><g transform="translate(44.32 0.272)" fill="#16ff3d" stroke="#000" stroke-width="2"><rect width="21" height="21" stroke="none"/><rect x="1" y="1" width="19" height="19" fill="none"/></g></g><g transform="translate(0 0)"><g transform="translate(0.022 0.272)" fill="#ff2d2d" stroke="#000" stroke-width="2"><rect width="21" height="21" stroke="none"/><rect x="1" y="1" width="19" height="19" fill="none"/></g><g transform="translate(22.022 0.272)" fill="#ff2d2d" stroke="#000" stroke-width="2"><rect width="21" height="21" stroke="none"/><rect x="1" y="1" width="19" height="19" fill="none"/></g><g transform="translate(22.022 22.272)" fill="#ff2d2d" stroke="#000" stroke-width="2"><rect width="21" height="21" stroke="none"/><rect x="1" y="1" width="19" height="19" fill="none"/></g><g transform="translate(22.022 44.272)" fill="#ff2d2d" stroke="#000" stroke-width="2"><rect width="21" height="21" stroke="none"/><rect x="1" y="1" width="19" height="19" fill="none"/></g><g transform="translate(22.022 66.272)" fill="#ff2d2d" stroke="#000" stroke-width="2"><rect width="21" height="21" stroke="none"/><rect x="1" y="1" width="19" height="19" fill="none"/></g><g transform="translate(22.022 89.272)" fill="#ff2d2d" stroke="#000" stroke-width="2"><rect width="21" height="20" stroke="none"/><rect x="1" y="1" width="19" height="18" fill="none"/></g><g transform="translate(44.022 0.272)" fill="#ff2d2d" stroke="#000" stroke-width="2"><rect width="21" height="21" stroke="none"/><rect x="1" y="1" width="19" height="19" fill="none"/></g></g><g transform="translate(394.043 0)"><g transform="translate(0)"><g transform="translate(-0.021 0.272)" fill="#ff602e" stroke="#000" stroke-width="2"><rect width="21" height="21" stroke="none"/><rect x="1" y="1" width="19" height="19" fill="none"/></g><g transform="translate(-0.021 44.272)" fill="#ff602e" stroke="#000" stroke-width="2"><rect width="21" height="21" stroke="none"/><rect x="1" y="1" width="19" height="19" fill="none"/></g><g transform="translate(-0.021 89.272)" fill="#ff602e" stroke="#000" stroke-width="2"><rect width="21" height="20" stroke="none"/><rect x="1" y="1" width="19" height="18" fill="none"/></g><g transform="translate(21.979 0.272)" fill="#ff602e" stroke="#000" stroke-width="2"><rect width="21" height="21" stroke="none"/><rect x="1" y="1" width="19" height="19" fill="none"/></g><g transform="translate(21.979 44.272)" fill="#ff602e" stroke="#000" stroke-width="2"><rect width="21" height="21" stroke="none"/><rect x="1" y="1" width="19" height="19" fill="none"/></g><g transform="translate(21.979 89.272)" fill="#ff602e" stroke="#000" stroke-width="2"><rect width="21" height="20" stroke="none"/><rect x="1" y="1" width="19" height="18" fill="none"/></g><g transform="translate(-0.021 22.272)" fill="#ff602e" stroke="#000" stroke-width="2"><rect width="21" height="21" stroke="none"/><rect x="1" y="1" width="19" height="19" fill="none"/></g><g transform="translate(43.979 0.272)" fill="#ff602e" stroke="#000" stroke-width="2"><rect width="21" height="21" stroke="none"/><rect x="1" y="1" width="19" height="19" fill="none"/></g><g transform="translate(43.979 44.272)" fill="#ff602e" stroke="#000" stroke-width="2"><rect width="21" height="21" stroke="none"/><rect x="1" y="1" width="19" height="19" fill="none"/></g><g transform="translate(43.979 89.272)" fill="#ff602e" stroke="#000" stroke-width="2"><rect width="21" height="20" stroke="none"/><rect x="1" y="1" width="19" height="18" fill="none"/></g><g transform="translate(43.979 66.272)" fill="#ff602e" stroke="#000" stroke-width="2"><rect width="21" height="21" stroke="none"/><rect x="1" y="1" width="19" height="19" fill="none"/></g></g></g><g transform="translate(314.979 0)"><g transform="translate(0.043 0.272)" fill="#ff0" stroke="#000" stroke-width="2"><rect width="21" height="21" stroke="none"/><rect x="1" y="1" width="19" height="19" fill="none"/></g><g transform="translate(0.043 89.272)" fill="#ff0" stroke="#000" stroke-width="2"><rect width="21" height="20" stroke="none"/><rect x="1" y="1" width="19" height="18" fill="none"/></g><g transform="translate(22.043 0.272)" fill="#ff0" stroke="#000" stroke-width="2"><rect width="21" height="21" stroke="none"/><rect x="1" y="1" width="19" height="19" fill="none"/></g><g transform="translate(22.043 89.272)" fill="#ff0" stroke="#000" stroke-width="2"><rect width="21" height="20" stroke="none"/><rect x="1" y="1" width="19" height="18" fill="none"/></g><g transform="translate(22.043 22.272)" fill="#ff0" stroke="#000" stroke-width="2"><rect width="21" height="21" stroke="none"/><rect x="1" y="1" width="19" height="19" fill="none"/></g><g transform="translate(22.043 44.272)" fill="#ff0" stroke="#000" stroke-width="2"><rect width="21" height="21" stroke="none"/><rect x="1" y="1" width="19" height="19" fill="none"/></g><g transform="translate(22.043 66.272)" fill="#ff0" stroke="#000" stroke-width="2"><rect width="21" height="21" stroke="none"/><rect x="1" y="1" width="19" height="19" fill="none"/></g><g transform="translate(45.043 0.272)" fill="#ff0" stroke="#000" stroke-width="2"><rect width="20" height="21" stroke="none"/><rect x="1" y="1" width="18" height="19" fill="none"/></g><g transform="translate(45.043 89.272)" fill="#ff0" stroke="#000" stroke-width="2"><rect width="20" height="20" stroke="none"/><rect x="1" y="1" width="18" height="18" fill="none"/></g></g></g></g></g></svg>